<svg width="96" height="96" viewBox="0 0 96 96" fill="none" xmlns="http://www.w3.org/2000/svg">
<g clip-path="url(#clip0_5681_5406)">
<path d="M4.0636 44.9955C5.35205 43.8144 7.06999 43.8144 8.68056 43.0628L5.88891 42.3112C5.5668 42.2038 5.24468 42.0964 5.35205 41.5596C5.45942 41.0227 5.78154 37.4795 6.21102 35.3321C6.64051 33.1846 8.03633 31.3593 10.828 31.2519C11.4278 31.2152 12.0234 31.373 12.5264 31.7018C13.0293 32.0307 13.4127 32.5131 13.6196 33.0773C14.1394 34.3152 14.5002 35.614 14.6933 36.9426C14.9235 37.7901 15.1028 38.6506 15.2302 39.5195C15.6597 41.4522 15.5523 41.8817 13.727 42.7407C13.5838 42.8695 13.4085 42.9574 13.2196 42.9952C13.0307 43.033 12.8351 43.0192 12.6533 42.9554C11.9017 42.4185 12.1164 41.5596 12.1164 40.9153C12.227 40.5348 12.4519 40.1975 12.7607 39.949C14.0491 38.7679 13.6196 37.2647 13.4049 35.7615C13.3971 35.4629 13.3237 35.1697 13.1901 34.9026L12.6533 34.151C11.687 32.9699 10.6132 33.1846 9.96901 34.5805C9.32479 35.9763 9.86164 36.6205 8.8953 37.3721C7.92896 38.1237 8.78793 38.0163 9.21741 37.909C9.6469 37.8016 10.0764 38.0163 10.1838 38.4458C10.2911 38.8753 10.6132 40.4859 10.7206 41.5596C10.828 42.6333 10.7206 43.1701 9.6469 43.4923C8.57319 43.8144 9.21741 44.2439 9.21741 44.7807C9.38465 45.193 9.4616 45.6363 9.44308 46.0808C9.42456 46.5253 9.311 46.9607 9.11004 47.3576H8.57319C8.03633 46.7134 8.25107 45.9618 8.1437 45.2102C8.03633 44.4586 7.71422 44.3512 6.96262 44.566C6.10314 44.9287 5.20122 45.1813 4.27834 45.3176L4.0636 44.9955Z" fill="#1A1A1A"/>
<path d="M9.1099 47.3576C9.20413 46.4217 9.13142 45.4765 8.89515 44.566C8.46567 43.707 8.89515 43.2775 9.64675 43.1702C10.3984 43.0628 10.291 42.6333 10.291 42.2038C10.218 40.8319 10.0385 39.4678 9.75412 38.1237C9.32464 38.0163 8.78778 39.1974 8.3583 38.1237C7.92881 37.05 8.03618 36.7279 9.1099 36.6205C10.1836 36.5131 9.32464 36.2984 9.32464 36.0837C9.40421 35.497 9.54824 34.9208 9.75412 34.3657C9.96887 33.7215 10.291 33.0773 11.1499 32.9699C11.5144 32.9419 11.8794 33.0178 12.2025 33.1888C12.5256 33.3599 12.7935 33.619 12.9753 33.9362C13.1781 34.207 13.3576 34.4943 13.5121 34.7952C13.8342 35.01 13.19 35.4394 13.7269 35.5468C14.1052 36.7343 14.1052 38.01 13.7269 39.1974C13.6908 39.4215 13.6044 39.6346 13.4742 39.8205C13.3441 40.0065 13.1735 40.1605 12.9753 40.2711C12.7814 40.3343 12.5767 40.3573 12.3737 40.3389C12.1706 40.3204 11.9735 40.2608 11.7942 40.1638C12.0089 40.3785 12.331 40.3785 12.4384 40.7006C12.5458 41.0227 12.2237 42.0964 12.7605 42.7407C15.0153 43.5996 15.1227 43.707 14.6932 46.3913C12.9979 47.3439 11.0267 47.685 9.1099 47.3576Z" fill="#FEFEFE"/>
<path d="M4.27844 45.3176C5.52999 44.6421 6.866 44.1366 8.25118 43.8144C8.46489 44.9834 8.5727 46.1692 8.57329 47.3576C6.97465 47.1068 5.48291 46.3982 4.27844 45.3176Z" fill="#FAFBFB"/>
<path d="M17.1627 44.5659C16.6653 45.3006 15.9527 45.8633 15.1226 46.1765C14.4784 45.4249 14.8005 44.6733 14.8005 43.8143C14.7892 43.7342 14.8008 43.6525 14.8338 43.5787C14.8669 43.5049 14.9202 43.4419 14.9875 43.397C15.0549 43.3521 15.1335 43.3272 15.2144 43.325C15.2953 43.3229 15.3751 43.3436 15.4447 43.3849C16.1963 43.5996 17.0553 43.5996 17.1627 44.5659Z" fill="#F9FAFC"/>
<path d="M17.1627 44.5659C16.6259 43.9217 15.8743 43.3849 15.1227 43.707C14.3711 44.0291 15.1227 44.8881 15.0153 45.5323C14.9079 46.1765 15.1227 45.9618 15.1227 46.1765L14.6932 46.3913C14.6717 46.1629 14.5982 45.9426 14.4784 45.747C14.4164 45.1541 14.2316 44.5806 13.9359 44.063C13.6401 43.5454 13.2398 43.0951 12.7605 42.7406H13.7268C15.0153 43.0627 16.5185 43.0627 17.5922 44.1365C17.5922 44.2504 17.547 44.3596 17.4664 44.4401C17.3859 44.5207 17.2766 44.5659 17.1627 44.5659Z" fill="#3E3F40"/>
<path d="M8.68062 32.2183C8.20919 33.0189 7.77914 33.8432 7.39217 34.6878C7.27839 34.1902 7.34558 33.6684 7.58169 33.2158C7.8178 32.7633 8.2074 32.4096 8.68062 32.2183Z" fill="#E7E7E7"/>
<path d="M12.4385 40.7006C11.9017 40.4859 11.2575 40.4859 11.0427 39.6269C11.6309 39.9829 12.2912 40.203 12.9754 40.2711L12.4385 40.7006Z" fill="#686868"/>
<path d="M13.7268 35.5468C13.4046 35.6542 13.1899 36.0837 12.7604 35.7616C12.3309 35.4395 13.512 35.3321 13.512 34.7952C13.6252 34.8797 13.7076 34.9989 13.7464 35.1348C13.7852 35.2706 13.7783 35.4153 13.7268 35.5468Z" fill="#6C6C6C"/>
<path d="M6.21106 40.808L6.64054 39.7343C6.85529 40.1637 6.85529 40.5932 6.21106 40.808Z" fill="#DBDBDB"/>
<path d="M11.9015 38.1237C12.7605 37.3721 12.4383 36.7279 12.0089 35.9763C13.5121 37.1574 13.5121 37.3721 11.9015 38.1237Z" fill="#3B3B3B"/>
<path d="M12.4384 38.6606C12.6532 38.5532 12.9753 38.3384 12.9753 38.7679C12.9753 39.1974 12.7606 39.1974 12.4384 39.1974C12.3877 39.2488 12.3212 39.2817 12.2496 39.2908C12.1779 39.2999 12.1053 39.2846 12.0434 39.2475C11.9814 39.2103 11.9338 39.1534 11.9081 39.0859C11.8824 39.0184 11.8801 38.9442 11.9016 38.8753C11.9016 38.2311 12.4384 38.9827 12.4384 38.6606Z" fill="#464646"/>
<path d="M11.7944 36.2984H10.3986C10.7207 35.7615 11.1502 35.7615 11.7944 36.2984Z" fill="#444444"/>
<circle cx="10.6261" cy="37.3739" r="10.3761" stroke="#1DA8D5" stroke-width="0.5"/>
<path d="M44.3172 17.974C42.5685 16.7634 42.165 15.4183 42.9721 13.9387C43.1593 13.5262 43.4278 13.1559 43.7617 12.8498C44.0956 12.5437 44.4878 12.3082 44.915 12.1575C45.3421 12.0068 45.7952 11.9438 46.2472 11.9725C46.6993 12.0012 47.1408 12.121 47.5454 12.3245C49.5631 13.2661 51.1773 15.0148 53.0604 16.0908C54.9436 17.1669 53.733 17.436 53.5985 18.243C53.2358 19.3252 53.1434 20.4797 53.3294 21.6058C53.3294 21.8748 53.3294 22.2784 53.1949 22.4129C53.0604 22.5474 52.3879 25.2376 52.6569 26.7173C52.9259 28.1969 53.1949 27.6588 52.6569 27.9279C52.1188 28.1969 51.8498 27.5243 51.7153 26.9863C51.2238 25.3104 51.2709 23.5225 51.8498 21.8748C50.6392 22.2784 49.9666 21.6058 49.8321 20.3952C49.8204 20.1732 49.7588 19.9566 49.6519 19.7616C49.545 19.5666 49.3955 19.3983 49.2146 19.269C49.0336 19.1398 48.8259 19.053 48.6068 19.0151C48.3877 18.9772 48.1628 18.9891 47.949 19.0501C46.9455 19.1145 45.9393 18.9772 44.9897 18.6466C44.7031 18.495 44.4687 18.2607 44.3172 17.974Z" fill="#1A1A1A"/>
<path d="M44.9897 18.2431C46.1223 18.5843 47.3066 18.721 48.487 18.6466C49.5631 18.5121 50.1012 18.7812 50.1012 19.9918C50.0909 20.5755 50.2808 21.1451 50.6392 21.6059C50.9082 21.8749 51.0428 22.1439 51.4463 21.6059C51.8498 21.0678 51.9843 20.6643 52.6569 21.0678C52.75 21.204 52.8105 21.3597 52.8338 21.523C52.8572 21.6862 52.8426 21.8527 52.7914 22.0094C52.6569 22.8165 51.9843 22.413 51.4463 22.5475C50.9082 22.682 51.0428 26.3138 52.5224 27.9279C54.002 29.5421 52.5224 27.1209 52.6569 26.7173C52.7914 26.3138 54.271 26.8518 54.271 27.9279C54.0311 27.8986 53.7877 27.9193 53.5562 27.9887C53.3247 28.0582 53.1101 28.1749 52.9259 28.3315C51.0428 30.0801 49.0251 29.9456 46.8729 28.8695V28.6005C47.1419 27.9279 46.3349 27.3899 46.2004 26.7173H46.4694C46.8729 26.3138 47.4109 27.5244 48.0835 26.5828C48.7561 25.6412 49.2941 25.9103 49.9667 25.6412C49.0548 26.1537 48.0477 26.4741 47.0074 26.5828C45.5278 26.4483 44.7207 25.9103 44.4517 24.6997C43.9969 22.5411 44.184 20.2966 44.9897 18.2431Z" fill="#FDFDFD"/>
<path d="M44.9901 18.2432C44.6556 20.0161 44.5202 21.8207 44.5866 23.6237C44.7211 25.7758 45.9317 26.5829 48.0839 25.9104C49.2522 25.5167 50.3442 24.9252 51.3122 24.1617C51.3247 24.4933 51.2254 24.8194 51.0302 25.0878C50.835 25.3561 50.5554 25.5511 50.2361 25.6413L48.0839 26.5829C47.1423 26.9865 48.3529 28.1971 47.2768 28.6006C46.2007 29.0041 47.9494 26.5829 46.2007 26.7174C44.4521 26.8519 44.183 24.8343 44.0485 23.3546C44.0003 21.5569 44.0902 19.7581 44.3176 17.9742L44.9901 18.2432Z" fill="#363636"/>
<path d="M58.4413 30.3492L56.2891 29.2731C55.7342 28.8776 55.0642 28.6763 54.3831 28.7007C53.7021 28.725 53.0481 28.9735 52.5228 29.4076C51.6925 30.1173 50.6298 30.4959 49.5378 30.4711C48.4459 30.4463 47.4014 30.0197 46.6043 29.2731C46.4698 29.0041 46.6043 28.8696 46.8733 28.735C47.325 28.6433 47.7939 28.6902 48.2184 28.8696C48.8884 29.0876 49.5989 29.1524 50.2973 29.0593C50.9957 28.9661 51.6643 28.7174 52.2538 28.3315C52.9263 27.928 53.4644 27.3899 54.2714 27.928C55.7946 28.3937 57.2788 28.9783 58.7103 29.6766C58.5758 29.9456 58.4413 30.0802 58.4413 30.3492Z" fill="#2E2E2E"/>
<path d="M46.8732 28.8695L46.6042 29.2731C43.9494 29.4252 41.3886 30.3098 39.206 31.8288L38.8025 31.2907C41.164 29.6087 43.9748 28.6718 46.8732 28.6005C46.8732 28.735 47.0077 28.735 47.0077 28.8695H46.8732Z" fill="#373738"/>
<path d="M43.9138 14.2078C44.1829 15.0148 43.6448 15.8219 44.4519 16.629C43.1068 16.0909 42.9723 15.4184 43.9138 14.2078Z" fill="#D2D2D2"/>
<path d="M47.6804 22.9509C47.1424 23.489 46.4698 23.758 46.2008 23.3545C45.9318 22.9509 46.3353 21.6058 46.6043 20.6642C46.8733 19.7227 45.6627 22.8164 47.6804 22.9509Z" fill="#505050"/>
<path d="M45.5282 23.8927C46.6043 24.4307 47.2768 24.5652 47.6804 23.7582C47.1423 25.1033 47.0078 25.2378 45.5282 23.8927Z" fill="#303030"/>
<path d="M48.7563 20.6644C48.7563 20.9334 48.6218 21.2024 48.3528 21.2024C48.0837 21.2024 47.8147 20.9334 47.9492 20.6644C48.0837 20.3953 48.0837 20.1263 48.3528 20.1263C48.6218 20.1263 48.8908 20.2608 48.7563 20.6644Z" fill="#5E5E5E"/>
<path d="M45.5281 20.9334C45.259 20.7989 45.259 20.6644 45.259 20.3953C45.259 20.1263 45.259 19.8573 45.6626 19.9918C46.0661 20.1263 45.9316 20.2608 45.9316 20.5298C45.9316 20.6369 45.8891 20.7395 45.8134 20.8152C45.7377 20.8909 45.6351 20.9334 45.5281 20.9334Z" fill="#2C2C2C"/>
<circle cx="48.0999" cy="21.877" r="13.0621" stroke="#1DA8D5" stroke-width="0.5"/>
<path d="M22.4238 10.7441C22.3165 11.3884 22.1017 11.9252 21.3501 11.9252C20.5985 11.9252 20.3838 11.3884 20.3838 10.8515C20.3838 10.3146 21.1354 10.2073 21.6722 10.0999C22.2091 9.99253 22.4238 10.2073 22.4238 10.7441Z" fill="#303030"/>
<path d="M20.1692 5.05348C20.3882 4.50252 20.5327 3.92476 20.5987 3.33554C20.706 2.90606 20.5987 2.47657 21.0282 2.04709C21.1952 2.29395 21.3061 2.57441 21.353 2.86873C21.4 3.16305 21.3819 3.46409 21.3 3.75067C21.2181 4.03725 21.0745 4.30241 20.8791 4.52749C20.6837 4.75258 20.4414 4.93212 20.1692 5.05348Z" fill="#333333"/>
<path d="M18.4512 5.2682L19.3101 2.58392H19.6323C19.7292 3.06747 19.7012 3.56776 19.5509 4.03747C19.4006 4.50718 19.133 4.93078 18.7733 5.2682H18.4512Z" fill="#363636"/>
<path d="M21.4575 5.5903C21.9629 4.7516 22.1885 3.77397 22.1017 2.79865C22.1017 2.71322 22.1357 2.63129 22.1961 2.57088C22.2565 2.51047 22.3384 2.47653 22.4239 2.47653C22.567 2.47653 22.6744 2.5839 22.746 2.79865C22.843 3.33992 22.7715 3.89793 22.541 4.39722C22.3106 4.89651 21.9324 5.31298 21.4575 5.5903Z" fill="#2B2B2B"/>
<path d="M17.3776 6.23453V3.65762C18.2365 4.40922 18.2365 5.16082 17.3776 6.23453Z" fill="#3F3F3F"/>
<path d="M20.7059 7.52298C20.9655 7.68947 21.1861 7.9099 21.3529 8.16929C21.5196 8.42867 21.6286 8.72093 21.6723 9.02618C21.7796 9.34829 21.5649 9.56303 21.2428 9.56303C20.9207 9.56303 20.5986 9.56303 20.9207 9.02618C21.2428 8.48932 20.3838 8.05984 20.7059 7.52298Z" fill="#3F3F3F"/>
<path d="M21.6722 6.87877C21.887 6.98614 21.9943 7.09351 21.887 7.41562C21.7796 7.73774 21.7796 7.73774 21.6722 7.73774C21.5648 7.73774 21.3501 7.41563 21.3501 7.20088C21.3501 6.98614 21.4575 6.98614 21.6722 6.87877Z" fill="#5D5D5D"/>
<path d="M20.1691 7.73774C20.0618 7.95248 19.847 8.05985 19.7396 7.95248C19.6827 7.96672 19.6224 7.95775 19.5721 7.92754C19.5217 7.89734 19.4854 7.84837 19.4712 7.79142C19.457 7.73447 19.4659 7.67419 19.4961 7.62385C19.5263 7.57351 19.5753 7.53723 19.6323 7.52299C19.6431 7.49207 19.6609 7.46403 19.6842 7.44104C19.7076 7.41804 19.7359 7.4007 19.767 7.39034C19.7981 7.37998 19.8311 7.37686 19.8636 7.38125C19.8961 7.38563 19.9271 7.39739 19.9544 7.41562C20.0617 7.41562 20.1691 7.63036 20.1691 7.73774Z" fill="#4B4B4B"/>
<path d="M27.363 17.0791C25.9116 16.4342 24.4014 15.9308 22.8534 15.5759C22.4239 15.4685 22.2092 15.4685 21.9944 15.898C21.7797 16.3275 19.0954 17.4012 18.0217 16.0054C17.8529 15.7789 17.6143 15.6142 17.3427 15.5366C17.0711 15.459 16.7815 15.4728 16.5185 15.5759C14.6402 16.0588 12.8079 16.7055 11.0426 17.5085L10.7205 17.0791C12.7245 15.9021 14.9582 15.1697 17.2701 14.9316C17.5922 14.9316 17.6996 14.9316 17.9143 14.6095C18.159 14.0617 18.1958 13.4435 18.018 12.8705C17.8402 12.2975 17.4598 11.8088 16.948 11.4958C16.3038 11.0663 15.6595 10.3147 16.089 9.56308C16.3386 8.50718 16.3751 7.41212 16.1964 6.34195C16.1699 6.14117 16.1955 5.93696 16.2707 5.74893C16.3459 5.5609 16.4682 5.39537 16.6259 5.26823C17.2701 6.34195 16.089 7.95251 17.9143 8.59674C16.948 8.81148 16.4111 9.24097 16.7332 10.0999C17.0554 10.9589 17.6996 11.1736 18.5586 10.8515C18.6659 12.3547 18.988 13.8579 18.2364 15.2538C17.4848 16.6496 18.5586 15.898 18.8807 16.1127C19.2028 16.3275 20.1691 16.9717 20.8133 16.3275C21.4576 15.6832 21.7797 15.7906 21.4576 15.1464C21.2221 14.7215 21.1459 14.2266 21.2428 13.7506C21.3502 13.2137 20.9207 13.2137 20.5986 12.999C20.3128 12.9834 20.0354 12.8967 19.7917 12.7467C19.5479 12.5966 19.3455 12.3881 19.2028 12.14C19.8601 12.1429 20.5127 12.2516 21.1355 12.4621C22.5313 12.6768 23.1755 12.2474 23.2829 10.8515C23.23 9.30302 22.9028 7.77616 22.3165 6.34195C22.2828 6.21591 22.2749 6.08434 22.2933 5.95516C22.3118 5.82599 22.3562 5.70189 22.4239 5.59035C23.4188 7.43043 23.8659 9.51695 23.7124 11.6031C23.6956 11.9614 23.5598 12.3038 23.3264 12.5761C23.093 12.8484 22.7754 13.035 22.4239 13.1063C21.7797 13.2137 21.5649 13.4284 21.6723 14.0727C21.7797 14.7169 21.9944 15.1464 22.6387 15.1464C24.3479 15.2826 26.0198 15.7187 27.5777 16.4348C27.4579 16.6304 27.3845 16.8508 27.363 17.0791Z" fill="#282828"/>
<path d="M21.7797 10.8515C21.6724 11.0662 21.6724 11.281 21.4576 11.281C21.2429 11.281 20.9208 11.1736 20.9208 10.8515C20.9208 10.5294 21.1355 10.6367 21.3503 10.6367C21.565 10.6367 21.7797 10.6367 21.7797 10.8515Z" fill="#E5E5E5"/>
<path d="M29.5918 10.5311C29.5918 16.2616 24.9463 20.9072 19.2157 20.9072C13.4851 20.9072 8.8396 16.2616 8.8396 10.5311C8.8396 4.80051 13.4851 0.154968 19.2157 0.154968C24.9463 0.154968 29.5918 4.80051 29.5918 10.5311Z" stroke="#1DA8D5" stroke-width="0.5"/>
<path d="M74.0245 51.3537C71.6896 52.0306 68.8357 51.6305 66.9468 49.9934C64.98 48.2888 64.7962 45.7248 65.9695 43.4812C66.0792 43.272 66.445 43.4156 66.3526 43.6398C65.4672 45.7928 65.4944 48.1176 67.4748 49.6102C69.2976 50.9836 71.6985 51.3016 73.9059 50.9578C74.1694 50.9165 74.2773 51.2805 74.0245 51.3537Z" fill="#19202E"/>
<path d="M65.2829 39.7037C64.9786 40.2051 64.345 40.9336 64.8735 41.4341C65.1554 41.6199 65.4565 41.7748 65.7715 41.8961C66.0711 42.0494 66.358 42.2262 66.6297 42.4248C66.8384 42.5866 66.7357 42.9783 66.4318 42.8868C65.6388 42.6656 64.8922 42.3031 64.2278 41.8168C63.7148 41.3919 63.9244 40.8398 64.2015 40.3242C64.9651 38.7903 66.04 37.4323 67.3575 36.3371C67.5681 36.1781 67.765 36.5074 67.6215 36.6805C66.7679 37.6286 65.9862 38.6391 65.2829 39.7037Z" fill="#19202E"/>
<path d="M71.2518 36.666C71.3297 36.6863 71.3994 36.7302 71.4513 36.7917C71.5033 36.8531 71.535 36.9292 71.5422 37.0093C71.567 37.3151 71.5269 37.6227 71.4245 37.9118C71.3221 38.201 71.1596 38.4652 70.9478 38.6872C70.3423 39.3852 70.0969 37.8898 70.7368 36.9169C70.7919 36.8324 70.8689 36.7644 70.9596 36.7202C71.0503 36.6761 71.1513 36.6573 71.2518 36.666Z" fill="#19202E"/>
<path d="M73.3774 36.573C73.3058 36.1732 73.1382 35.7967 72.8891 35.4759C72.5856 35.1475 72.2324 35.1152 71.8716 34.9078C71.8243 34.8795 71.7862 34.8379 71.762 34.7883C71.7379 34.7386 71.7288 34.683 71.7358 34.6282C71.7428 34.5734 71.7657 34.5219 71.8016 34.4799C71.8374 34.4379 71.8848 34.4073 71.9378 34.3918C72.8229 34.147 74.1424 35.5003 73.8267 36.5712C73.8125 36.6196 73.783 36.6621 73.7426 36.6924C73.7023 36.7227 73.6532 36.7392 73.6028 36.7394C73.5523 36.7396 73.5031 36.7235 73.4625 36.6935C73.4219 36.6636 73.392 36.6213 73.3774 36.573Z" fill="#19202E"/>
<path d="M70.9479 45.7274C70.5727 47.523 67.9312 47.8851 66.8277 46.5717C66.7843 46.5245 66.759 46.4634 66.7563 46.3993C66.7537 46.3352 66.7738 46.2722 66.8132 46.2216C66.8526 46.171 66.9086 46.1359 66.9714 46.1227C67.0342 46.1095 67.0996 46.119 67.156 46.1495C67.8078 46.4568 68.4221 46.8264 69.1898 46.6514C69.4788 46.5737 69.7481 46.4358 69.9802 46.2468C70.2122 46.0578 70.4018 45.822 70.5366 45.5547C70.5638 45.507 70.6075 45.4709 70.6594 45.4532C70.7114 45.4355 70.7681 45.4375 70.8187 45.4587C70.8693 45.48 70.9104 45.519 70.9342 45.5685C70.958 45.618 70.9629 45.6745 70.9479 45.7274Z" fill="#19202E"/>
<path d="M82.4498 87.2022C82.0356 90.9294 81.6946 94.683 80.9835 98.3638C80.9197 98.6945 80.4178 98.5514 80.4816 98.2184C81.1913 94.5507 81.4169 90.8169 82.0004 87.136C82.0384 86.8982 82.4775 86.9517 82.4498 87.2022Z" fill="#19202E"/>
<path d="M67.2372 69.4234C65.476 77.3943 64.7352 85.5567 65.0326 93.7144C65.0462 94.0427 64.5293 94.0427 64.5166 93.7144C64.1757 85.5143 64.9578 77.306 66.8413 69.3179C66.9032 69.0529 67.2916 69.1729 67.2372 69.4234Z" fill="#19202E"/>
<path d="M61.4537 80.268C63.3328 72.2567 64.1609 63.5221 72.0438 58.1038C72.2005 56.5399 72.1873 54.6031 72.3871 52.8863C72.4119 52.6747 72.7538 52.5828 72.7965 52.8333C72.9841 53.9422 72.5268 57.9073 72.6516 61.2869C75.0057 60.2709 77.271 59.0602 79.424 57.6676C79.911 57.4081 80.3637 57.0887 80.7713 56.7167C80.7499 56.6896 80.7361 56.6572 80.7314 56.6229C80.3713 55.5866 80.1883 54.497 80.1903 53.3999C80.1903 53.7433 76.9035 51.8792 76.6263 51.5902C76.0853 51.0197 75.6917 50.3256 75.48 49.5682C75.2682 48.8109 75.2446 48.0133 75.4113 47.2447C75.5473 46.6115 75.8591 45.9342 76.4678 45.739C77.2181 45.4974 77.9863 46.0927 78.7788 46.1349C80.5861 46.2315 81.8367 43.3561 81.1422 41.8556C81.0086 41.5517 80.7818 41.2982 80.4945 41.132C80.2072 40.9658 79.8745 40.8954 79.5445 40.931C78.8396 41.281 78.2589 41.8388 77.8807 42.5291C77.7185 42.7778 77.2805 42.623 77.379 42.3176C77.4573 42.0854 77.5636 41.8636 77.6955 41.6571C77.2968 41.5502 76.9519 41.2992 76.7276 40.9526C76.5032 40.606 76.4153 40.1885 76.4809 39.7808C76.6263 38.9224 77.4071 38.3155 77.7748 37.5223C78.5373 35.8805 77.4662 33.5933 74.8303 33.0192C73.4436 32.7166 71.9772 33.2068 70.6178 32.7551C70.576 32.7431 70.5361 32.7255 70.4991 32.7025C69.8087 33.2874 69.2428 34.0053 68.8353 34.8134C68.6946 35.0657 68.3237 34.8415 68.4522 34.5887C68.8017 33.7731 69.294 33.0265 69.9059 32.384C69.2691 31.9436 68.8324 31.2691 68.6909 30.5077C68.3232 28.3833 70.3791 26.9057 72.3618 27.1398C73.2669 27.2735 73.6942 26.6548 74.4701 27.1398C73.889 26.8114 76.7975 26.0271 77.0498 25.938C78.7192 25.3479 79.6374 25.2224 80.7713 26.5048C80.9697 26.7291 82.7652 27.1398 82.7652 27.1398C84.5472 25.0261 87.737 28.7769 88.3794 31.1157C88.6753 32.2961 89.9009 32.3959 89.3247 33.4677C89.7735 32.6356 91.3201 36.0175 91.5485 36.4654C92.7373 38.8108 92.4228 40.1913 91.1815 41.8556C91.4587 41.4855 90.5816 43.5991 90.6641 43.8229C91.4641 45.9876 89.7145 48.0652 87.8776 48.8949C87.3496 49.1332 85.8176 49.7271 85.2516 49.3837C85.4506 49.5279 85.6069 49.7234 85.7038 49.9494C85.8006 50.1754 85.8345 50.4234 85.8016 50.6671C85.6816 51.7896 84.8056 52.4374 83.8476 52.8717C83.6215 52.974 80.7572 53.8099 80.7441 53.4661C80.7441 56.5019 81.9094 57.1999 83.108 59.1587C83.108 59.1719 83.108 59.1719 83.1212 59.1855C87.5578 61.1668 91.163 64.4555 93.0116 68.9994C94.5699 72.8299 94.81 77.0567 94.5962 81.1381C94.4916 83.1326 93.5082 94.9669 92.8662 98.7851C92.8132 99.1017 92.3504 98.9563 92.3912 98.6528C92.8958 94.9645 93.2353 91.2691 93.6573 87.571C89.1747 88.4003 85.6384 87.3003 81.4953 86.2632C80.1795 85.9728 78.906 85.5157 77.7058 84.9029C77.6627 84.8789 77.6266 84.8441 77.601 84.802C77.5754 84.7598 77.5613 84.7117 77.5599 84.6624C77.5585 84.6131 77.57 84.5643 77.5932 84.5207C77.6164 84.4772 77.6505 84.4405 77.6922 84.4141C80.1106 71.4546 80.3436 68.4248 82.8557 64.6802C83.6881 63.439 84.6119 62.8508 86.1435 62.8442C86.1995 62.8469 86.2524 62.8709 86.2911 62.9115C86.3298 62.9521 86.3514 63.006 86.3514 63.0621C86.3514 63.1182 86.3298 63.1722 86.2911 63.2128C86.2524 63.2533 86.1995 63.2774 86.1435 63.28C84.127 63.3447 83.811 64.0718 82.7366 65.737C80.3643 69.4127 79.9699 76.7931 78.1283 84.4531C80.4393 85.6553 83.1971 86.1375 85.7078 86.7515C88.3114 87.3351 90.9955 87.4692 93.6442 87.1479C94.3307 79.434 95.2386 70.8513 89.8012 64.5081C87.9032 62.3248 85.5277 60.6086 82.859 59.4927C82.8334 59.4844 82.8109 59.4687 82.7942 59.4476C82.7775 59.4265 82.7674 59.4009 82.7652 59.374C82.1442 58.658 81.5997 57.8788 81.1408 57.0493C79.9553 58.4411 74.509 61.1532 72.8874 61.9497C73.9191 63.9442 75.0915 65.965 75.8188 68.0918C75.9773 67.9332 76.1124 67.7114 76.2409 67.5636C77.9337 65.6179 79.9211 63.6647 81.0606 61.3287C81.1952 61.0529 81.5901 61.2897 81.47 61.5665C80.504 63.7904 78.6404 65.5395 77.152 67.4182C76.7548 67.9192 76.3834 68.6251 75.7391 68.8315C75.6621 68.8504 75.5807 68.8389 75.5119 68.7996C75.443 68.7602 75.3919 68.6959 75.3691 68.62C74.7046 66.3731 73.3751 64.2745 72.306 62.1875C70.7222 63.5158 69.4239 65.1514 68.4897 66.9956C68.4596 67.0444 68.4131 67.0808 68.3585 67.0982C68.3038 67.1156 68.2448 67.1128 68.192 67.0904C68.1393 67.068 68.0963 67.0274 68.0709 66.976C68.0455 66.9246 68.0394 66.8658 68.0536 66.8103C68.3162 65.7666 69.1509 64.804 69.8234 63.9958C70.4689 63.1967 71.1995 62.4702 72.0021 61.8292C71.9065 61.333 71.8887 60.8251 71.9491 60.3235C71.9641 59.7821 71.989 59.2272 72.0283 58.6859C72.0152 58.8576 71.015 59.4683 70.8532 59.6105C70.4513 59.9627 70.0353 60.3244 69.6518 60.7067C67.7786 62.6626 66.3109 64.9701 65.3333 67.4961C63.5982 71.6591 61.9531 80.5063 61.9531 80.5199C62.6228 80.8304 63.3545 80.9839 64.0924 80.9688C64.146 80.9723 64.1962 80.9961 64.2328 81.0353C64.2695 81.0745 64.2899 81.1262 64.2899 81.1799C64.2899 81.2335 64.2695 81.2852 64.2328 81.3244C64.1962 81.3636 64.146 81.3874 64.0924 81.3909C63.2321 81.4734 62.3661 81.3084 61.5963 80.9153C61.3083 80.73 61.4406 80.3604 61.4537 80.268Z" fill="#19202E"/>
<path d="M62.6159 82.6455C62.2669 89.0662 62.4315 89.1633 62.3912 92.5125C62.3887 92.5651 62.366 92.6147 62.3279 92.651C62.2897 92.6874 62.2391 92.7076 62.1864 92.7076C62.1338 92.7076 62.0831 92.6874 62.045 92.651C62.0069 92.6147 61.9842 92.5651 61.9817 92.5125C61.799 89.2224 61.8785 85.923 62.2195 82.6455C62.2434 82.3945 62.6295 82.3945 62.6159 82.6455Z" fill="#19202E"/>
<path d="M10.2502 26.9956C10.9774 26.0867 12.1542 25.8087 13.1626 25.3046C14.1975 24.7871 15.213 24.2666 15.9809 23.3787C16.6557 22.5985 17.0559 21.732 17.0559 20.7164" stroke="#1DA8D5" stroke-width="0.5" stroke-linecap="round"/>
<path d="M29.603 10.0854C30.1166 10.0854 30.7706 9.98361 31.2732 10.1272C31.7907 10.275 32.3033 10.6551 32.7346 10.9623C33.8385 11.7484 34.7763 12.7697 36.1323 13.1335C36.5986 13.2586 38.2281 13.3511 38.8089 12.7175" stroke="#1DA8D5" stroke-width="0.5" stroke-linecap="round"/>
</g>
<defs>
<clipPath id="clip0_5681_5406">
<rect width="96" height="96" fill="white"/>
</clipPath>
</defs>
</svg>
